<?xml version="1.0" encoding="UTF-8"?>
<!DOCTYPE svg PUBLIC "-//W3C//DTD SVG 1.1//EN" "http://www.w3.org/Graphics/SVG/1.1/DTD/svg11.dtd">
<!-- Creator: CorelDRAW X6 -->
<svg xmlns="http://www.w3.org/2000/svg" xml:space="preserve" width="4.23611in" height="1.5in" version="1.1" style="shape-rendering:geometricPrecision; text-rendering:geometricPrecision; image-rendering:optimizeQuality; fill-rule:evenodd; clip-rule:evenodd"
viewBox="0 0 4236 1500"
 xmlns:xlink="http://www.w3.org/1999/xlink">
 <defs>
  <style type="text/css">
   <![CDATA[
    .fil0 {fill:#2C9CD7}
    .fil1 {fill:#FEFEFE}
   ]]>
  </style>
 </defs>
 <g id="Layer_x0020_1">
  <metadata id="CorelCorpID_0Corel-Layer"/>
  <path class="fil0" d="M1099 157c201,179 268,464 167,713 -100,249 -346,409 -614,399 0,154 0,231 0,231 -588,-322 -776,-780 -573,-1178 99,-175 272,-295 470,-327 26,-4 51,-7 77,-8l58 0c152,7 299,66 414,170z"/>
  <polygon class="fil0" points="1396,1013 1502,1013 1502,478 1861,1013 1978,1013 1978,333 1872,333 1872,871 1524,333 1396,333 "/>
  <polygon class="fil0" points="2023,333 2306,1013 2438,1013 2726,333 2613,333 2372,910 2147,333 "/>
  <polygon class="fil0" points="2770,1013 2876,1013 2876,333 2770,333 "/>
  <polygon class="fil0" points="2920,333 3204,1013 3335,1013 3624,333 3511,333 3270,910 3045,333 "/>
  <path class="fil0" d="M3916 402c33,0 63,4 89,12 26,8 48,23 67,43 18,21 32,48 42,83 10,35 15,79 15,132 0,53 -5,97 -15,132 -10,35 -24,63 -42,83 -18,21 -40,35 -67,43 -26,8 -56,12 -89,12 -34,0 -63,-4 -90,-12 -26,-8 -48,-23 -66,-43 -18,-21 -32,-48 -42,-83 -10,-35 -15,-79 -15,-132 0,-54 5,-98 15,-132 10,-35 24,-62 42,-83 18,-21 40,-35 66,-43 26,-8 56,-12 90,-12zm327 281l0 -19c-1,-57 -8,-106 -23,-148 -15,-45 -37,-82 -65,-111 -28,-29 -63,-51 -103,-65 -40,-14 -86,-21 -136,-21l0 0c-51,0 -96,7 -136,21 -40,14 -75,36 -103,65 -28,29 -50,66 -65,111 -15,45 -23,97 -23,158 0,61 8,113 23,158 15,45 37,82 65,111 28,29 63,51 103,65 40,14 86,21 136,21 51,0 96,-7 136,-21 40,-14 75,-36 103,-65 28,-29 50,-66 65,-111 14,-42 22,-92 23,-148z"/>
  <path class="fil1" d="M904 550c-18,-58 -50,-104 -95,-139 -46,-35 -97,-53 -155,-53 -57,0 -108,18 -153,53 -45,35 -77,82 -95,139l498 0zm238 88c0,15 -1,30 -2,46 -2,16 -3,32 -6,49l-728 0c8,26 20,51 35,75 15,24 34,44 56,61 22,17 47,31 75,41 28,10 59,15 92,15 41,0 82,-7 123,-21 41,-14 75,-33 102,-58l143 143c-63,47 -125,81 -185,100 -60,19 -124,29 -191,29 -68,0 -132,-13 -191,-38 -59,-25 -111,-59 -154,-102 -44,-43 -78,-94 -103,-152 -25,-58 -38,-121 -38,-187 0,-66 13,-128 38,-187 25,-58 60,-109 104,-152 44,-43 96,-77 154,-102 59,-25 122,-38 189,-38 64,0 126,12 184,35 59,24 111,56 156,98 45,42 81,92 107,150 26,58 39,123 39,193l0 0z"/>
  <path class="fil0" d="M1216 1190l0 -25c0,-12 -6,-17 -17,-17l-6 0c-11,0 -17,6 -17,17l0 48c0,5 1,9 3,11 2,2 6,4 10,7l37 20c8,5 14,8 17,11 3,3 6,6 8,9 2,4 3,11 3,21l0 62c0,32 -16,49 -47,49l-24 0c-31,0 -46,-18 -46,-53l0 -15 39 0 0 16c0,11 6,17 17,17l7 0c10,0 15,-6 15,-17l0 -49c0,-5 -1,-9 -3,-11 -2,-2 -6,-4 -10,-7l-37 -21c-8,-4 -14,-8 -18,-11 -4,-3 -6,-7 -8,-11 -2,-5 -2,-11 -2,-18l0 -59c0,-33 15,-50 46,-50l24 0c31,0 46,17 46,50l0 28 -39 0z"/>
  <path class="fil0" d="M1439 1366l20 0c10,0 15,-6 15,-17l0 -185c0,-11 -6,-17 -17,-17l-18 0c-11,0 -17,6 -17,17l0 185c0,11 6,17 17,17zm-9 35c-31,0 -47,-16 -47,-49l0 -191c0,-33 15,-50 46,-50l37 0c31,0 46,17 46,50l0 191c0,33 -16,49 -47,49l-36 0 0 0z"/>
  <path class="fil0" d="M1760 1333l0 19c0,33 -15,49 -46,49l-25 0c-31,0 -46,-16 -46,-49l0 -191c0,-33 15,-49 46,-49l25 0c31,0 46,16 46,49l0 33 -39 0 0 -30c0,-11 -6,-17 -17,-17l-8 0c-10,0 -15,6 -15,17l0 185c0,11 5,17 15,17l10 0c10,0 15,-6 15,-17l0 -16 39 0z"/>
  <polygon class="fil0" points="1889,1401 1927,1401 1927,1112 1889,1112 "/>
  <path class="fil0" d="M2143 1260l0 -96c0,-11 -6,-17 -17,-17l-10 0c-11,0 -17,6 -17,17l0 96 44 0zm-44 141l-39 0 0 -240c0,-33 15,-50 46,-50l29 0c31,0 46,17 46,50l0 240 -39 0 0 -106 -44 0 0 106z"/>
  <polygon class="fil0" points="2406,1401 2314,1401 2314,1112 2353,1112 2353,1366 2406,1366 "/>
  <polygon class="fil0" points="2520,1401 2561,1401 2561,1352 2520,1352 "/>
  <path class="fil0" d="M2764 1190l0 -25c0,-12 -6,-17 -17,-17l-6 0c-11,0 -17,6 -17,17l0 48c0,5 1,9 3,11 2,2 6,4 10,7l37 20c8,5 14,8 17,11 3,3 6,6 8,9 2,4 3,11 3,21l0 62c0,32 -16,49 -47,49l-24 0c-31,0 -46,-18 -46,-53l0 -15 39 0 0 16c0,11 6,17 17,17l7 0c10,0 15,-6 15,-17l0 -49c0,-5 -1,-9 -3,-11 -2,-2 -6,-4 -10,-7l-37 -21c-8,-4 -14,-8 -18,-11 -4,-3 -6,-7 -8,-11 -2,-5 -2,-11 -2,-18l0 -59c0,-33 15,-50 46,-50l24 0c31,0 46,17 46,50l0 28 -39 0z"/>
  <path class="fil0" d="M2971 1261l25 0c10,0 15,-6 15,-17l0 -81c0,-11 -6,-17 -17,-17l-23 0 0 114zm-39 -149l71 0c31,0 47,17 47,50l0 86c0,33 -15,49 -46,49l-32 0 0 105 -39 0 0 -289z"/>
  <polygon class="fil0" points="3179,1401 3179,1112 3275,1112 3275,1147 3218,1147 3218,1235 3268,1235 3268,1270 3218,1270 3218,1366 3275,1366 3275,1401 "/>
  <path class="fil0" d="M3439 1366l29 0c10,0 15,-4 15,-13l0 -185c0,-14 -6,-21 -17,-21l-27 0 0 219zm-39 35l0 -289 67 0c36,0 54,19 54,56l0 192c0,28 -15,42 -46,42l-75 0 0 0z"/>
  <path class="fil0" d="M3845 1112l0 234c0,37 -16,55 -47,55l-33 0c-31,0 -46,-18 -46,-55l0 -234 39 0 0 235c0,13 6,19 17,19l16 0c10,0 16,-6 16,-19l0 -235 39 0z"/>
  <path class="fil0" d="M4018 1261l25 0c10,0 15,-6 15,-17l0 -81c0,-11 -6,-17 -17,-17l-23 0 0 114zm-39 -149l71 0c31,0 47,17 47,50l0 86c0,33 -15,49 -46,49l-32 0 0 105 -39 0 0 -289z"/>
  <polygon class="fil0" points="4183,1401 4224,1401 4224,1352 4183,1352 "/>
 </g>
</svg>
